<svg version="1.1" xmlns="http://www.w3.org/2000/svg" xmlns:xlink="http://www.w3.org/1999/xlink" x="0px" y="0px"
	viewBox="0 0 1800 1800" style="enable-background:new 0 0 1800 1800;" xml:space="preserve">
  <style type="text/css">
    .st0{fill:#001935;}
    .st1{fill:#FFFFFF;stroke:#000000;stroke-linecap:round;stroke-miterlimit:10;}
    .st2{fill:#FFFFFF;}
    .st3{fill:#FFFFFF;stroke:#001935;stroke-width:32;stroke-miterlimit:10;}
  </style>
  <g id="Layer_1">
    <path class="st0" d="M1620.38,1800.5h-1440c-99.41,0-180-80.59-180-180v-1440c0-99.41,80.59-180,180-180h1440
      c99.41,0,180,80.59,180,180v1440C1800.38,1719.91,1719.79,1800.5,1620.38,1800.5z"/>
    <path class="st1" d="M1309.72,782.37"/>
  </g>
  <g id="Layer_2">
    <path class="st2" d="M625.59,365.73v237.1l14.14,114.86c-48.37-64.89-116.42-105.28-191.81-105.28
      c-146.82,0-265.85,153.21-265.85,342.19c0,189,119.02,342.2,265.85,342.2c72.87,0,138.91-37.75,186.93-98.88l29.16,86.33h143.15
      V365.73H625.59z M491.13,1151.55c-45.57-5.09-121.19-9.01-123.75-209.11c-1.67-130.06,58.44-170.7,95.96-181.82h0.01
      c18.92-7.1,42.42-5.25,55.83-3.26c0.06,0,0.11,0.01,0.17,0.02c5.47,0.82,9.22,1.65,10.25,1.88c0.18,0.04,0.28,0.07,0.28,0.07
      c36.5,9.13,85.5,47.24,91.48,183.11C631.61,1175.88,491.13,1151.55,491.13,1151.55z"/>
    <path class="st2" d="M993.6,365.73v918.52h143.15l29.16-86.33c48.02,61.12,114.06,98.88,186.93,98.88
      c146.82,0,265.85-153.21,265.85-342.2c0-188.98-119.02-342.19-265.85-342.19c-75.39,0-143.44,40.39-191.81,105.28l14.14-114.86
      v-237.1H993.6z M1179.4,942.44c5.98-135.87,54.97-173.97,91.48-183.11c0,0,0.1-0.02,0.28-0.07c1.03-0.23,4.78-1.06,10.25-1.88
      c0.06-0.01,0.11-0.02,0.17-0.02c13.41-1.99,36.91-3.84,55.83,3.26h0.01c37.52,11.11,97.63,51.76,95.96,181.82
      c-2.56,200.1-78.18,204.02-123.75,209.11C1309.62,1151.55,1169.14,1175.88,1179.4,942.44z"/>
    <polygon class="st3" points="1745.15,1238.71 1745.15,1327.69 1589.45,1327.69 1589.45,1483.38 1500.48,1483.38 1500.48,1327.69 
      1344.78,1327.69 1344.78,1238.71 1500.48,1238.71 1500.48,1083.01 1589.45,1083.01 1589.45,1238.71 	"/>
    <rect x="350.34" y="1405.28" class="st3" width="1104.52" height="110.45"/>
  </g>
</svg>
